<svg xmlns="http://www.w3.org/2000/svg" width="72" height="72" viewBox="0 0 59.69 72">
    <g transform="matrix(0.8,0,0,0.8,-7.1,-0.9)" fill="#e11d48">
        <path
            d="M 44.9 1.1 c -15.9 0 -54.8 5.9 -25.9 56.3 c 12.4 21.6 21 31.4 26 31.4 c 5 0 13.7 -9.9 26 -31.4 C 99.9 7 60.8 1.1 44.9 1.1 z M 59.6 49.3 c 0 3.6 -4.1 4.8 -6.7 4.8 c -3.7 0 -6.7 -2.2 -6.7 -4.8 c 0 -2.7 3 -4.8 6.7 -4.8 c 1.6 0 3.1 0.4 4.2 1.1 c 0 0 0 -9.4 0 -15.7 L 39.4 31.7 v 19.8 c 0 3.6 -4.1 4.8 -6.7 4.8 c -3.7 0 -6.7 -2.2 -6.7 -4.8 c 0 -2.7 3 -4.8 6.7 -4.8 c 1.6 0 3.1 0.4 4.2 1.1 c 0 0 0 -20.3 0 -21.2 c 0 -0.9 0.8 -1.1 1.2 -1.1 c 0.5 -0.1 20.3 -2.2 20.3 -2.2 c 0.9 -0.1 1.2 0.4 1.2 1.5 V 49.3 z">
        </path>
    </g>
</svg>