<svg xmlns="http://www.w3.org/2000/svg" width="280" height="72" viewBox="0 0 280 72">
    <g transform="matrix(0.8206717950769349,0,0,0.8206717950769349,-7.085241066009006,-0.930641769440681)"
        fill="#e11d48">
        <path
            d="M44.931,1.134c-15.861,0-54.806,5.91-25.929,56.296c12.353,21.55,21.042,31.437,26.01,31.437  c4.969,0,13.659-9.887,26.012-31.437C99.901,7.043,60.792,1.134,44.931,1.134z M59.65,49.304c0,3.564-4.095,4.844-6.729,4.844  c-3.713,0-6.726-2.167-6.726-4.844c0-2.673,3.013-4.84,6.726-4.84c1.607,0,3.083,0.406,4.241,1.08c0,0,0-9.399,0-15.722  L39.36,31.718v19.75c0,3.561-4.095,4.84-6.729,4.84c-3.714,0-6.726-2.167-6.726-4.84c0-2.678,3.011-4.844,6.726-4.844  c1.607,0,3.082,0.405,4.241,1.082c0,0,0-20.322,0-21.22c0-0.898,0.759-1.094,1.24-1.145c0.485-0.053,20.292-2.163,20.292-2.163  c0.93-0.061,1.247,0.36,1.247,1.454V49.304z">
        </path>
    </g>
    <g transform="matrix(1.1986475343235308,0,0,1.1986475343235308,79.72998734635446,6.028291472759328)" fill="#e11d48">
        <path
            d="M29.56 37.72 q0.28 0.64 -0.14 1.3 t-1.14 0.66 l-26.64 0 q-0.36 0 -0.68 -0.18 t-0.48 -0.46 q-0.44 -0.64 -0.12 -1.32 l1.24 -2.92 q0.16 -0.4 0.52 -0.64 t0.76 -0.24 l18.64 0 l-6.56 -15.68 l-5.36 12.8 q-0.16 0.4 -0.5 0.62 t-0.78 0.22 l-3.36 0 q-0.76 0 -1.2 -0.64 q-0.16 -0.28 -0.2 -0.64 t0.08 -0.68 l8.12 -19.04 q0.16 -0.4 0.5 -0.64 t0.78 -0.24 l3.84 0 q0.44 0 0.78 0.24 t0.5 0.64 z M37.56 21.88 q0.6 0 1 0.42 t0.4 1.02 l0 14.96 q0 0.56 -0.4 0.98 t-1 0.42 l-3.04 0 q-0.56 0 -0.98 -0.42 t-0.42 -0.98 l0 -14.96 q0 -0.6 0.42 -1.02 t0.98 -0.42 l3.04 0 z M37.56 10 q0.6 0 1 0.42 t0.4 0.98 l0 7.4 q0 0.6 -0.4 1.02 t-1 0.42 l-3.04 0 q-0.56 0 -0.98 -0.42 t-0.42 -1.02 l0 -7.4 q0 -0.56 0.42 -0.98 t0.98 -0.42 l3.04 0 z M65 24.84 q1.72 1.08 2.62 2.64 t0.9 3.48 q0 4.52 -3.44 6.92 q-2.32 1.68 -6.28 2.12 l-0.16 0 q-0.56 0 -0.92 -0.36 q-0.48 -0.44 -0.48 -1.04 l0 -2.88 q0 -0.52 0.36 -0.92 t0.88 -0.48 q1.88 -0.2 2.92 -0.88 q0.8 -0.48 1.08 -1.24 q0.16 -0.44 0.16 -1.12 q0 -0.44 -0.16 -0.76 t-0.56 -0.6 q-1.16 -0.8 -3 -1.36 l-0.64 -0.2 q-2 -0.56 -3.68 -0.92 q-0.36 -0.08 -1.16 -0.28 l-0.44 -0.12 q-1.44 -0.36 -3.04 -1 q-2.36 -1 -3.88 -2.52 q-1.76 -1.76 -1.76 -4.64 q0 -3.96 3.04 -6.44 q2.08 -1.76 5.84 -2.24 q0.64 -0.08 1.1 0.36 t0.46 1.04 l0 2.88 q0 0.52 -0.32 0.92 t-0.82 0.46 t-1.02 0.22 q-1.16 0.44 -1.64 0.86 t-0.68 0.86 q-0.2 0.68 -0.2 1.28 q0 0.32 0.36 0.68 q0.56 0.56 1.64 1 q0.48 0.2 1.68 0.6 l5 1.24 l0.24 0.08 q1.88 0.52 2.72 0.8 q1.88 0.64 3.28 1.56 z M58.32000000000001 15.8 q-0.48 -0.12 -0.78 -0.5 t-0.3 -0.9 l0 -2.92 q0 -0.64 0.52 -1.08 q0.2 -0.2 0.52 -0.26 t0.6 -0.02 q3.52 0.56 5.72 2.4 q3 2.48 3.2 6.32 q0.04 0.56 -0.38 1.02 t-1.02 0.46 l-3.12 0 q-0.52 0 -0.92 -0.36 t-0.44 -0.88 q-0.16 -1.04 -0.68 -1.72 q-0.84 -1 -2.6 -1.52 q-0.12 0 -0.16 -0.04 l-0.16 0 z M53.64 34.16 q0.48 0.08 0.8 0.48 t0.32 0.88 l0 2.96 q0 0.64 -0.48 1.08 q-0.4 0.32 -0.92 0.32 l-0.2 0 q-3.72 -0.56 -6.12 -2.44 q-3.12 -2.48 -3.52 -6.92 q-0.08 -0.64 0.36 -1.1 t1.04 -0.46 l3.16 0 q0.56 0 0.96 0.38 t0.44 0.94 q0.12 2 1.96 3.08 q0.84 0.48 2.2 0.8 z M84.76 10.32 q0.48 0.4 0.48 1.08 l0 3 q0 0.52 -0.3 0.9 t-0.82 0.5 q-2.56 0.52 -4.36 2.44 q-2.44 2.56 -2.44 6.66 t2.44 6.7 q1.8 1.88 4.36 2.4 q0.52 0.12 0.82 0.5 t0.3 0.9 l0 3 q0 0.64 -0.48 1.08 q-0.44 0.32 -0.92 0.32 l-0.24 0 q-4.64 -0.76 -7.96 -4.2 q-4.16 -4.28 -4.16 -10.66 t4.16 -10.74 q3.24 -3.36 7.96 -4.16 q0.64 -0.12 1.16 0.28 z M97.32 14.2 q4.16 4.36 4.16 10.74 t-4.16 10.66 q-3.32 3.44 -7.96 4.2 l-0.24 0 q-0.48 0 -0.92 -0.32 q-0.48 -0.44 -0.48 -1.08 l0 -3 q0 -0.52 0.3 -0.9 t0.82 -0.5 q2.56 -0.52 4.36 -2.4 q2.44 -2.6 2.44 -6.7 t-2.44 -6.66 q-1.8 -1.92 -4.36 -2.44 q-0.52 -0.12 -0.82 -0.5 t-0.3 -0.9 l0 -3 q0 -0.68 0.5 -1.08 t1.14 -0.28 q4.72 0.8 7.96 4.16 z M130.79999999999998 10 q0.56 0 0.98 0.42 t0.42 0.98 l0 26.8 q0 0.56 -0.42 0.98 t-0.98 0.42 l-3.52 0 q-0.72 0 -1.16 -0.56 l-19.56 -26.8 q-0.24 -0.32 -0.28 -0.72 t0.14 -0.76 t0.52 -0.56 t0.74 -0.2 l3.52 0 q0.32 0 0.64 0.14 t0.48 0.42 l14.04 19.08 l0 -18.24 q0 -0.56 0.4 -0.98 t1 -0.42 l3.04 0 z M110.72 29.4 q0.56 0 0.98 0.4 t0.42 1 l0 7.4 q0 0.56 -0.42 0.98 t-0.98 0.42 l-3.04 0 q-0.56 0 -0.98 -0.42 t-0.42 -0.98 l0 -7.4 q0 -0.6 0.42 -1 t0.98 -0.4 l3.04 0 z M154.4 15.8 q-0.48 -0.08 -0.8 -0.48 t-0.32 -0.88 l0 -3.04 q0 -0.6 0.48 -1.08 q0.52 -0.4 1.16 -0.28 q4.72 0.8 8 4.2 q1.68 1.76 2.72 4 q0.16 0.28 0.14 0.64 t-0.22 0.68 t-0.5 0.5 t-0.66 0.18 l-3.4 0 q-0.36 0 -0.68 -0.18 t-0.52 -0.5 q-0.56 -0.84 -1.04 -1.32 q-1.8 -1.84 -4.36 -2.44 z M150.32 10.32 q0.48 0.48 0.48 1.08 l0 3.04 q0 0.48 -0.32 0.88 t-0.8 0.48 q-2.56 0.6 -4.36 2.44 q-2.48 2.68 -2.48 6.7 t2.48 6.7 q1.72 1.84 4.36 2.44 q0.48 0.08 0.8 0.48 t0.32 0.88 l0 3.04 q0 0.64 -0.52 1.08 q-0.4 0.32 -0.88 0.32 l-0.24 0 q-4.8 -0.88 -8 -4.24 q-4.16 -4.28 -4.16 -10.7 t4.16 -10.7 q3.24 -3.4 8 -4.2 q0.64 -0.12 1.16 0.28 z M167.04 24.119999999999997 q0.04 0.28 0.04 0.84 q0 0.88 -0.12 2.04 q-0.6 5.08 -4.04 8.64 q-3.28 3.4 -8 4.24 l-0.24 0 q-0.48 0 -0.92 -0.32 q-0.48 -0.48 -0.48 -1.08 l0 -3.04 q0 -0.48 0.32 -0.88 t0.8 -0.48 q2.64 -0.6 4.36 -2.44 q1.4 -1.48 2 -3.4 l-8.48 0 q-0.6 0 -1 -0.4 t-0.4 -1 l0 -2.84 q0 -0.56 0.4 -0.98 t1 -0.42 l13.36 0 q0.56 0 0.96 0.38 t0.44 0.94 l0 0.2 z">
        </path>
    </g>
</svg>